<?xml version="1.0" encoding="utf-8"?>
<!-- Generator: Adobe Illustrator 15.1.0, SVG Export Plug-In . SVG Version: 6.00 Build 0)  -->
<!DOCTYPE svg PUBLIC "-//W3C//DTD SVG 1.1//EN" "http://www.w3.org/Graphics/SVG/1.1/DTD/svg11.dtd">
<svg version="1.1" id="Layer_1" xmlns="http://www.w3.org/2000/svg" xmlns:xlink="http://www.w3.org/1999/xlink" x="0px" y="0px"
	 width="200px" height="200px" viewBox="0 0 200 200" enable-background="new 0 0 200 200" xml:space="preserve">
<g>
	<path fill="none" stroke="#FFFFFF" stroke-width="2" d="M172.209,121.699c-5.87,0-139.879-0.195-144.612-0.195V50.599
		c0-1.384,1.196-2.505,2.672-2.505h139.27c1.474,0,2.671,1.121,2.671,2.505V121.699z"/>
	<rect x="32.963" y="54.734" fill="none" stroke="#FFFFFF" stroke-width="2" width="133.877" height="61.641"/>
	<polygon fill="none" stroke="#FFFFFF" stroke-width="2" points="115.462,143.32 84.118,143.32 86.254,135.649 113.324,135.649 	"/>
	<polygon fill="none" stroke="#FFFFFF" stroke-width="2" points="120.407,147.642 79.173,147.642 83.829,143.053 115.75,143.053 	
		"/>
	<path fill="none" stroke="#FFFFFF" stroke-width="2" d="M27.597,133.618c0,1.214,1.196,2.196,2.672,2.196h139.27
		c1.474,0,2.671-0.982,2.671-2.196v-12.114H27.597V133.618z"/>
	<polygon fill="none" stroke="#FFFFFF" stroke-width="2" points="72.945,84.52 86.033,97.185 89.522,93.58 80.216,84.574 
		89.391,75.092 85.61,71.433 	"/>
	<polygon fill="none" stroke="#FFFFFF" stroke-width="2" points="126.636,84.52 113.547,97.185 110.058,93.58 119.363,84.574 
		110.188,75.092 113.969,71.433 	"/>
	<polygon fill="none" stroke="#FFFFFF" stroke-width="2" points="98.322,97.185 92.89,97.185 100.176,71.433 105.609,71.433 	"/>
</g>
</svg>
