<?xml version="1.0" encoding="utf-8"?>
<!-- Generator: Adobe Illustrator 15.1.0, SVG Export Plug-In . SVG Version: 6.00 Build 0)  -->
<!DOCTYPE svg PUBLIC "-//W3C//DTD SVG 1.1//EN" "http://www.w3.org/Graphics/SVG/1.1/DTD/svg11.dtd">
<svg version="1.1" id="Layer_1" xmlns="http://www.w3.org/2000/svg" xmlns:xlink="http://www.w3.org/1999/xlink" x="0px" y="0px"
	 width="200px" height="200px" viewBox="0 0 200 200" enable-background="new 0 0 200 200" xml:space="preserve">
<g>
	<path fill="none" stroke="#FFFFFF" stroke-width="2" d="M140.249,109.273c0,0.647-0.555,1.173-1.241,1.173H35.887
		c-0.685,0-1.241-0.525-1.241-1.173V42.036c0-0.647,0.556-1.172,1.241-1.172h103.121c0.687,0,1.241,0.525,1.241,1.172V109.273z"/>
	
		<rect x="88.667" y="49.346" fill="none" stroke="#FFFFFF" stroke-width="2" stroke-miterlimit="10" width="42.757" height="12.526"/>
	<rect x="88.378" y="72.465" fill="#FFFFFF" width="33.895" height="1.964"/>
	<rect x="42.998" y="89.954" fill="#FFFFFF" width="13.665" height="1.975"/>
	<rect x="42.998" y="84.513" fill="#FFFFFF" width="25.304" height="1.975"/>
	<rect x="88.378" y="78.34" fill="#FFFFFF" width="38.605" height="1.963"/>
	<rect x="88.378" y="83.453" fill="#FFFFFF" width="30.208" height="1.964"/>
	<rect x="88.378" y="67.593" fill="#FFFFFF" width="42.087" height="1.965"/>
	<rect x="88.418" y="91.61" fill="none" stroke="#FFFFFF" stroke-width="2" width="10.901" height="8.096"/>
	<rect x="104.492" y="91.61" fill="none" stroke="#FFFFFF" stroke-width="2" width="10.898" height="8.096"/>
	<rect x="120.564" y="91.61" fill="none" stroke="#FFFFFF" stroke-width="2" width="10.9" height="8.096"/>
	<g>
		
			<rect x="150.277" y="40.46" transform="matrix(1 0.0021 -0.0021 1 0.1611 -0.3382)" fill="none" stroke="#FFFFFF" stroke-width="2" width="17.925" height="70.39"/>
		
			<rect x="150.964" y="45.519" transform="matrix(1 0.002 -0.002 1 0.0942 -0.3179)" fill="#FFFFFF" width="12.055" height="1.691"/>
		
			<rect x="150.905" y="73.189" transform="matrix(1 0.0026 -0.0026 1 0.1951 -0.4054)" fill="#FFFFFF" width="6.116" height="1.296"/>
		
			<rect x="150.913" y="69.263" transform="matrix(1 0.0022 -0.0022 1 0.1566 -0.3438)" fill="#FFFFFF" width="6.12" height="1.297"/>
		<rect x="150.887" y="81.04" transform="matrix(1 0.0023 -0.0023 1 0.1894 -0.356)" fill="#FFFFFF" width="6.12" height="1.294"/>
		
			<rect x="150.896" y="77.113" transform="matrix(1 0.0022 -0.0022 1 0.1741 -0.3437)" fill="#FFFFFF" width="6.12" height="1.296"/>
		
			<rect x="150.861" y="92.817" transform="matrix(1 0.0026 -0.0026 1 0.2415 -0.3973)" fill="#FFFFFF" width="6.627" height="1.296"/>
		
			<rect x="150.869" y="88.889" transform="matrix(1 0.0021 -0.0021 1 0.1918 -0.3294)" fill="#FFFFFF" width="6.624" height="1.298"/>
		
			<rect x="150.845" y="100.665" transform="matrix(1 0.0022 -0.0022 1 0.2244 -0.3406)" fill="#FFFFFF" width="6.625" height="1.299"/>
		
			<rect x="150.852" y="96.742" transform="matrix(1 0.0022 -0.0022 1 0.2157 -0.3406)" fill="#FFFFFF" width="6.626" height="1.296"/>
		
			<rect x="150.946" y="53.56" transform="matrix(1 0.0021 -0.0021 1 0.1162 -0.3296)" fill="#FFFFFF" width="6.625" height="1.298"/>
		
			<rect x="150.956" y="49.637" transform="matrix(1 0.0024 -0.0024 1 0.1227 -0.375)" fill="#FFFFFF" width="6.626" height="1.296"/>
		
			<rect x="150.93" y="61.413" transform="matrix(1 0.0024 -0.0024 1 0.1514 -0.3749)" fill="#FFFFFF" width="6.626" height="1.297"/>
		
			<rect x="150.938" y="57.488" transform="matrix(1 0.0024 -0.0024 1 0.1375 -0.3635)" fill="#FFFFFF" width="6.627" height="1.295"/>
		
			<rect x="150.92" y="65.146" transform="matrix(1 0.0023 -0.0023 1 0.1555 -0.3685)" fill="#FFFFFF" width="12.056" height="1.692"/>
		
			<rect x="150.878" y="84.775" transform="matrix(1 0.0023 -0.0023 1 0.1946 -0.3557)" fill="#FFFFFF" width="12.055" height="1.689"/>
		
			<rect x="150.836" y="104.398" transform="matrix(1 0.002 -0.002 1 0.2135 -0.3175)" fill="#FFFFFF" width="12.054" height="1.693"/>
	</g>
	
		<rect x="42.998" y="49.255" fill="none" stroke="#FFFFFF" stroke-width="2" stroke-miterlimit="10" width="39.317" height="29.211"/>
	<g>
		<path fill="none" stroke="#FFFFFF" stroke-width="2" d="M77.033,125.778c0.046-0.977,0.312-1.919,0.741-2.811
			c-1.382-0.325-4.228,0.225-10.047,2.374c-14.046,5.193-40.091,17.747-39.473,21.02c0.618,3.271,27.666-3.977,41.711-9.171
			c5.407-1.998,8.098-3.4,9.33-4.555C77.546,131.433,76.883,128.936,77.033,125.778z"/>
		<path fill="none" stroke="#FFFFFF" stroke-width="2" d="M92.868,115.981c-4.07,0.146-8.657,2.661-10.258,6.264
			c-0.406,0.914-0.624,1.898-0.585,2.933c0.121,3.349,1.112,6.057,3.219,7.468c1.105,0.741,2.517,1.126,4.271,1.063
			c5.105-0.187,6.998-5.074,18.847-9.034C103.913,119.085,97.972,115.795,92.868,115.981z"/>
	</g>
</g>
</svg>
